M48
METRIC,TZ
T1C0.400
T2C0.500
T3C0.650
T4C0.800
T5C0.800
%
G90
G05
T1
X145651Y-130957
X156870Y-146180
X158120Y-135450
X158120Y-137690
X158150Y-142680
X163660Y-136730
X165690Y-136120
T2
X140580Y-133830
X140580Y-135100
X140580Y-136370
X140580Y-137640
X140580Y-138910
X140580Y-140180
X140580Y-141450
X140580Y-142720
X140580Y-143990
X140580Y-145260
X142580Y-130040
X142580Y-149040
X143850Y-130040
X143850Y-149040
X145120Y-130040
X145120Y-149040
X146390Y-130040
X146390Y-149040
X147660Y-130040
X147660Y-149040
X148930Y-130040
X148930Y-149040
X150200Y-130040
X150200Y-149040
X151470Y-130040
X151470Y-149040
X152740Y-130040
X152740Y-149040
X154010Y-130040
X154010Y-149040
X155280Y-130040
X155280Y-149040
X156550Y-130040
X156550Y-149040
X157820Y-130040
X157820Y-149040
T3
X162560Y-127430
X162560Y-128700
X163830Y-127430
X163830Y-128700
X165100Y-127430
X165100Y-128700
X166370Y-127430
X166370Y-128700
X167640Y-127430
X167640Y-128700
T4
X122575Y-128500
X122575Y-150500
X124575Y-128500
X124575Y-150500
X126575Y-128500
X126575Y-150500
X128575Y-128500
X128575Y-150500
X130575Y-128500
X130575Y-150500
X132575Y-128500
X132575Y-150500
X134575Y-128500
X134575Y-150500
X136575Y-128500
X136575Y-150500
X138575Y-128500
X138575Y-150500
X140575Y-128500
X140575Y-150500
T5
X124150Y-133070
X124220Y-145800
T0
M30
